<svg id="visual" viewBox="0 0 960 540" width="960" height="540" xmlns="http://www.w3.org/2000/svg" xmlns:xlink="http://www.w3.org/1999/xlink" version="1.1"><rect x="0" y="0" width="960" height="540" fill="#001220"></rect><defs><linearGradient id="grad1_0" x1="43.8%" y1="100%" x2="100%" y2="0%"><stop offset="14.444444444444446%" stop-color="#533cfa" stop-opacity="1"></stop><stop offset="85.55555555555554%" stop-color="#533cfa" stop-opacity="1"></stop></linearGradient></defs><defs><linearGradient id="grad1_1" x1="43.8%" y1="100%" x2="100%" y2="0%"><stop offset="14.444444444444446%" stop-color="#533cfa" stop-opacity="1"></stop><stop offset="85.55555555555554%" stop-color="#0041df" stop-opacity="1"></stop></linearGradient></defs><defs><linearGradient id="grad1_2" x1="43.8%" y1="100%" x2="100%" y2="0%"><stop offset="14.444444444444446%" stop-color="#0040c2" stop-opacity="1"></stop><stop offset="85.55555555555554%" stop-color="#0041df" stop-opacity="1"></stop></linearGradient></defs><defs><linearGradient id="grad1_3" x1="43.8%" y1="100%" x2="100%" y2="0%"><stop offset="14.444444444444446%" stop-color="#0040c2" stop-opacity="1"></stop><stop offset="85.55555555555554%" stop-color="#003aa2" stop-opacity="1"></stop></linearGradient></defs><defs><linearGradient id="grad1_4" x1="43.8%" y1="100%" x2="100%" y2="0%"><stop offset="14.444444444444446%" stop-color="#003280" stop-opacity="1"></stop><stop offset="85.55555555555554%" stop-color="#003aa2" stop-opacity="1"></stop></linearGradient></defs><defs><linearGradient id="grad1_5" x1="43.8%" y1="100%" x2="100%" y2="0%"><stop offset="14.444444444444446%" stop-color="#003280" stop-opacity="1"></stop><stop offset="85.55555555555554%" stop-color="#00295f" stop-opacity="1"></stop></linearGradient></defs><defs><linearGradient id="grad1_6" x1="43.8%" y1="100%" x2="100%" y2="0%"><stop offset="14.444444444444446%" stop-color="#001e3e" stop-opacity="1"></stop><stop offset="85.55555555555554%" stop-color="#00295f" stop-opacity="1"></stop></linearGradient></defs><defs><linearGradient id="grad1_7" x1="43.8%" y1="100%" x2="100%" y2="0%"><stop offset="14.444444444444446%" stop-color="#001e3e" stop-opacity="1"></stop><stop offset="85.55555555555554%" stop-color="#001220" stop-opacity="1"></stop></linearGradient></defs><defs><linearGradient id="grad2_0" x1="0%" y1="100%" x2="56.3%" y2="0%"><stop offset="14.444444444444446%" stop-color="#533cfa" stop-opacity="1"></stop><stop offset="85.55555555555554%" stop-color="#533cfa" stop-opacity="1"></stop></linearGradient></defs><defs><linearGradient id="grad2_1" x1="0%" y1="100%" x2="56.3%" y2="0%"><stop offset="14.444444444444446%" stop-color="#0041df" stop-opacity="1"></stop><stop offset="85.55555555555554%" stop-color="#533cfa" stop-opacity="1"></stop></linearGradient></defs><defs><linearGradient id="grad2_2" x1="0%" y1="100%" x2="56.3%" y2="0%"><stop offset="14.444444444444446%" stop-color="#0041df" stop-opacity="1"></stop><stop offset="85.55555555555554%" stop-color="#0040c2" stop-opacity="1"></stop></linearGradient></defs><defs><linearGradient id="grad2_3" x1="0%" y1="100%" x2="56.3%" y2="0%"><stop offset="14.444444444444446%" stop-color="#003aa2" stop-opacity="1"></stop><stop offset="85.55555555555554%" stop-color="#0040c2" stop-opacity="1"></stop></linearGradient></defs><defs><linearGradient id="grad2_4" x1="0%" y1="100%" x2="56.3%" y2="0%"><stop offset="14.444444444444446%" stop-color="#003aa2" stop-opacity="1"></stop><stop offset="85.55555555555554%" stop-color="#003280" stop-opacity="1"></stop></linearGradient></defs><defs><linearGradient id="grad2_5" x1="0%" y1="100%" x2="56.3%" y2="0%"><stop offset="14.444444444444446%" stop-color="#00295f" stop-opacity="1"></stop><stop offset="85.55555555555554%" stop-color="#003280" stop-opacity="1"></stop></linearGradient></defs><defs><linearGradient id="grad2_6" x1="0%" y1="100%" x2="56.3%" y2="0%"><stop offset="14.444444444444446%" stop-color="#00295f" stop-opacity="1"></stop><stop offset="85.55555555555554%" stop-color="#001e3e" stop-opacity="1"></stop></linearGradient></defs><defs><linearGradient id="grad2_7" x1="0%" y1="100%" x2="56.3%" y2="0%"><stop offset="14.444444444444446%" stop-color="#001220" stop-opacity="1"></stop><stop offset="85.55555555555554%" stop-color="#001e3e" stop-opacity="1"></stop></linearGradient></defs><g transform="translate(960, 540)"><path d="M-270 0C-207.9 -3.9 -145.7 -7.7 -137 -16.6C-128.3 -25.5 -173 -39.4 -171.9 -42.4C-170.8 -45.3 -123.9 -37.2 -127.2 -48.2C-130.5 -59.3 -183.9 -89.4 -196.6 -103.2C-209.2 -116.9 -181 -114.3 -159.7 -110.2C-138.3 -106.1 -123.9 -100.6 -119 -105.4C-114.1 -110.3 -118.8 -125.6 -115.4 -130.2C-112 -134.9 -100.4 -128.8 -104.5 -151.4C-108.6 -174.1 -128.4 -225.4 -125.5 -239.1C-122.6 -252.7 -97.1 -228.7 -78.7 -207.6C-60.3 -186.4 -49 -168.1 -42.1 -170.9C-35.2 -173.6 -32.7 -197.4 -26.4 -217.4C-20.1 -237.4 -10.1 -253.7 0 -270L0 0Z" fill="#00182f"></path><path d="M-236.2 0C-181.9 -3.4 -127.5 -6.8 -119.9 -14.6C-112.2 -22.3 -151.3 -34.5 -150.4 -37.1C-149.4 -39.6 -108.4 -32.5 -111.3 -42.2C-114.2 -51.9 -160.9 -78.2 -172 -90.3C-183.1 -102.3 -158.4 -100 -139.7 -96.4C-121 -92.8 -108.4 -88 -104.1 -92.3C-99.9 -96.5 -104 -109.9 -101 -114C-98 -118 -87.9 -112.7 -91.5 -132.5C-95 -152.3 -112.3 -197.2 -109.8 -209.2C-107.3 -221.1 -85 -200.1 -68.9 -181.6C-52.8 -163.1 -42.9 -147.1 -36.9 -149.5C-30.8 -151.9 -28.6 -172.7 -23.1 -190.2C-17.6 -207.7 -8.8 -222 0 -236.2L0 0Z" fill="#00234e"></path><path d="M-202.5 0C-155.9 -2.9 -109.3 -5.8 -102.7 -12.5C-96.2 -19.1 -129.7 -29.6 -128.9 -31.8C-128.1 -34 -92.9 -27.9 -95.4 -36.2C-97.8 -44.4 -138 -67.1 -147.4 -77.4C-156.9 -87.7 -135.7 -85.7 -119.7 -82.7C-103.7 -79.6 -92.9 -75.4 -89.3 -79.1C-85.6 -82.7 -89.1 -94.2 -86.5 -97.7C-84 -101.1 -75.3 -96.6 -78.4 -113.6C-81.5 -130.5 -96.3 -169.1 -94.1 -179.3C-91.9 -189.6 -72.8 -171.5 -59 -155.7C-45.2 -139.8 -36.8 -126.1 -31.6 -128.2C-26.4 -130.2 -24.5 -148 -19.8 -163.1C-15.1 -178.1 -7.5 -190.3 0 -202.5L0 0Z" fill="#002e6f"></path><path d="M-168.7 0C-129.9 -2.4 -91.1 -4.8 -85.6 -10.4C-80.2 -16 -108.1 -24.7 -107.4 -26.5C-106.7 -28.3 -77.4 -23.2 -79.5 -30.1C-81.5 -37 -115 -55.9 -122.9 -64.5C-130.8 -73.1 -113.1 -71.4 -99.8 -68.9C-86.5 -66.3 -77.4 -62.8 -74.4 -65.9C-71.3 -68.9 -74.3 -78.5 -72.1 -81.4C-70 -84.3 -62.8 -80.5 -65.3 -94.6C-67.9 -108.8 -80.2 -140.9 -78.4 -149.4C-76.6 -158 -60.7 -143 -49.2 -129.7C-37.7 -116.5 -30.6 -105.1 -26.3 -106.8C-22 -108.5 -20.4 -123.4 -16.5 -135.9C-12.6 -148.4 -6.3 -158.6 0 -168.7L0 0Z" fill="#003791"></path><path d="M-135 0C-103.9 -1.9 -72.9 -3.9 -68.5 -8.3C-64.1 -12.8 -86.5 -19.7 -85.9 -21.2C-85.4 -22.6 -61.9 -18.6 -63.6 -24.1C-65.2 -29.6 -92 -44.7 -98.3 -51.6C-104.6 -58.5 -90.5 -57.1 -79.8 -55.1C-69.2 -53.1 -61.9 -50.3 -59.5 -52.7C-57.1 -55.2 -59.4 -62.8 -57.7 -65.1C-56 -67.4 -50.2 -64.4 -52.3 -75.7C-54.3 -87 -64.2 -112.7 -62.7 -119.5C-61.3 -126.4 -48.6 -114.4 -39.4 -103.8C-30.2 -93.2 -24.5 -84.1 -21.1 -85.4C-17.6 -86.8 -16.3 -98.7 -13.2 -108.7C-10.1 -118.7 -5 -126.9 0 -135L0 0Z" fill="#003db2"></path><path d="M-101.2 0C-77.9 -1.5 -54.6 -2.9 -51.4 -6.2C-48.1 -9.6 -64.9 -14.8 -64.4 -15.9C-64 -17 -46.4 -13.9 -47.7 -18.1C-48.9 -22.2 -69 -33.5 -73.7 -38.7C-78.5 -43.8 -67.9 -42.9 -59.9 -41.3C-51.9 -39.8 -46.5 -37.7 -44.6 -39.5C-42.8 -41.4 -44.6 -47.1 -43.3 -48.8C-42 -50.6 -37.7 -48.3 -39.2 -56.8C-40.7 -65.3 -48.1 -84.5 -47.1 -89.7C-46 -94.8 -36.4 -85.8 -29.5 -77.8C-22.6 -69.9 -18.4 -63.1 -15.8 -64.1C-13.2 -65.1 -12.3 -74 -9.9 -81.5C-7.5 -89 -3.8 -95.1 0 -101.2L0 0Z" fill="#0041d1"></path><path d="M-67.5 0C-52 -1 -36.4 -1.9 -34.2 -4.2C-32.1 -6.4 -43.2 -9.9 -43 -10.6C-42.7 -11.3 -31 -9.3 -31.8 -12.1C-32.6 -14.8 -46 -22.4 -49.1 -25.8C-52.3 -29.2 -45.2 -28.6 -39.9 -27.6C-34.6 -26.5 -31 -25.1 -29.8 -26.4C-28.5 -27.6 -29.7 -31.4 -28.8 -32.6C-28 -33.7 -25.1 -32.2 -26.1 -37.9C-27.2 -43.5 -32.1 -56.4 -31.4 -59.8C-30.6 -63.2 -24.3 -57.2 -19.7 -51.9C-15.1 -46.6 -12.3 -42 -10.5 -42.7C-8.8 -43.4 -8.2 -49.3 -6.6 -54.4C-5 -59.4 -2.5 -63.4 0 -67.5L0 0Z" fill="#3240ed"></path><path d="M-33.7 0C-26 -0.5 -18.2 -1 -17.1 -2.1C-16 -3.2 -21.6 -4.9 -21.5 -5.3C-21.3 -5.7 -15.5 -4.6 -15.9 -6C-16.3 -7.4 -23 -11.2 -24.6 -12.9C-26.2 -14.6 -22.6 -14.3 -20 -13.8C-17.3 -13.3 -15.5 -12.6 -14.9 -13.2C-14.3 -13.8 -14.9 -15.7 -14.4 -16.3C-14 -16.9 -12.6 -16.1 -13.1 -18.9C-13.6 -21.8 -16 -28.2 -15.7 -29.9C-15.3 -31.6 -12.1 -28.6 -9.8 -25.9C-7.5 -23.3 -6.1 -21 -5.3 -21.4C-4.4 -21.7 -4.1 -24.7 -3.3 -27.2C-2.5 -29.7 -1.3 -31.7 0 -33.7L0 0Z" fill="#533cfa"></path></g><g transform="translate(0, 0)"><path d="M270 0C246 8.3 221.9 16.5 210.5 25.6C199 34.6 200 44.5 179.6 44.3C159.2 44.1 117.4 33.9 135.6 51.4C153.7 69 231.9 114.3 239.1 125.5C246.2 136.6 182.4 113.6 153.9 106.2C125.4 98.9 132.2 107.2 142.2 126C152.2 144.8 165.3 174.2 156.5 176.6C147.7 179.1 117 154.6 104.5 151.4C92 148.2 97.6 166.3 99.9 190.4C102.2 214.5 101.2 244.6 89.4 235.6C77.5 226.6 54.8 178.5 44.8 181.6C34.7 184.6 37.2 238.8 31.8 262.1C26.5 285.3 13.2 277.7 0 270L0 0Z" fill="#00182f"></path><path d="M236.3 0C215.2 7.2 194.2 14.4 184.1 22.4C174.1 30.3 175 38.9 157.2 38.7C139.3 38.6 102.7 29.6 118.6 45C134.5 60.4 202.9 100 209.2 109.8C215.5 119.6 159.6 99.4 134.7 92.9C109.7 86.5 115.7 93.8 124.4 110.2C133.2 126.7 144.6 152.4 136.9 154.6C129.2 156.7 102.4 135.3 91.5 132.5C80.5 129.7 85.4 145.5 87.4 166.6C89.4 187.7 88.6 214 78.2 206.2C67.8 198.3 48 156.2 39.2 158.9C30.3 161.5 32.5 209 27.8 229.3C23.2 249.7 11.6 243 0 236.3L0 0Z" fill="#00234e"></path><path d="M202.5 0C184.5 6.2 166.5 12.4 157.8 19.2C149.2 26 150 33.3 134.7 33.2C119.4 33.1 88.1 25.4 101.7 38.6C115.3 51.7 173.9 85.7 179.3 94.1C184.7 102.5 136.8 85.2 115.4 79.7C94.1 74.1 99.2 80.4 106.7 94.5C114.1 108.6 124 130.6 117.4 132.5C110.8 134.3 87.8 116 78.4 113.6C69 111.2 73.2 124.7 74.9 142.8C76.7 160.9 75.9 183.5 67 176.7C58.1 170 41.1 133.9 33.6 136.2C26 138.5 27.9 179.1 23.9 196.6C19.8 214 9.9 208.3 0 202.5L0 0Z" fill="#002e6f"></path><path d="M168.8 0C153.7 5.2 138.7 10.3 131.5 16C124.4 21.6 125 27.8 112.3 27.7C99.5 27.6 73.4 21.2 84.7 32.1C96.1 43.1 144.9 71.5 149.4 78.4C153.9 85.4 114 71 96.2 66.4C78.4 61.8 82.7 67 88.9 78.7C95.1 90.5 103.3 108.9 97.8 110.4C92.3 111.9 73.2 96.6 65.3 94.6C57.5 92.6 61 103.9 62.4 119C63.9 134 63.3 152.9 55.9 147.3C48.4 141.6 34.3 111.6 28 113.5C21.7 115.4 23.2 149.3 19.9 163.8C16.5 178.3 8.3 173.5 0 168.8L0 0Z" fill="#003791"></path><path d="M135 0C123 4.1 111 8.3 105.2 12.8C99.5 17.3 100 22.2 89.8 22.1C79.6 22 58.7 16.9 67.8 25.7C76.9 34.5 116 57.2 119.5 62.7C123.1 68.3 91.2 56.8 76.9 53.1C62.7 49.4 66.1 53.6 71.1 63C76.1 72.4 82.6 87.1 78.2 88.3C73.9 89.6 58.5 77.3 52.3 75.7C46 74.1 48.8 83.1 50 95.2C51.1 107.2 50.6 122.3 44.7 117.8C38.8 113.3 27.4 89.3 22.4 90.8C17.3 92.3 18.6 119.4 15.9 131C13.2 142.7 6.6 138.8 0 135L0 0Z" fill="#003db2"></path><path d="M101.3 0C92.2 3.1 83.2 6.2 78.9 9.6C74.6 13 75 16.7 67.4 16.6C59.7 16.5 44 12.7 50.8 19.3C57.7 25.9 87 42.9 89.7 47.1C92.3 51.2 68.4 42.6 57.7 39.8C47 37.1 49.6 40.2 53.3 47.2C57.1 54.3 62 65.3 58.7 66.2C55.4 67.2 43.9 58 39.2 56.8C34.5 55.6 36.6 62.4 37.5 71.4C38.3 80.4 38 91.7 33.5 88.4C29.1 85 20.6 66.9 16.8 68.1C13 69.2 13.9 89.6 11.9 98.3C9.9 107 5 104.1 0 101.3L0 0Z" fill="#0041d1"></path><path d="M67.5 0C61.5 2.1 55.5 4.1 52.6 6.4C49.7 8.7 50 11.1 44.9 11.1C39.8 11 29.4 8.5 33.9 12.9C38.4 17.2 58 28.6 59.8 31.4C61.6 34.2 45.6 28.4 38.5 26.6C31.4 24.7 33.1 26.8 35.6 31.5C38 36.2 41.3 43.5 39.1 44.2C36.9 44.8 29.3 38.7 26.1 37.9C23 37.1 24.4 41.6 25 47.6C25.6 53.6 25.3 61.2 22.3 58.9C19.4 56.7 13.7 44.6 11.2 45.4C8.7 46.2 9.3 59.7 8 65.5C6.6 71.3 3.3 69.4 0 67.5L0 0Z" fill="#3240ed"></path><path d="M33.8 0C30.7 1 27.7 2.1 26.3 3.2C24.9 4.3 25 5.6 22.5 5.5C19.9 5.5 14.7 4.2 16.9 6.4C19.2 8.6 29 14.3 29.9 15.7C30.8 17.1 22.8 14.2 19.2 13.3C15.7 12.4 16.5 13.4 17.8 15.7C19 18.1 20.7 21.8 19.6 22.1C18.5 22.4 14.6 19.3 13.1 18.9C11.5 18.5 12.2 20.8 12.5 23.8C12.8 26.8 12.7 30.6 11.2 29.5C9.7 28.3 6.9 22.3 5.6 22.7C4.3 23.1 4.6 29.9 4 32.8C3.3 35.7 1.7 34.7 0 33.8L0 0Z" fill="#533cfa"></path></g></svg>